<?xml version="1.0" encoding="UTF-8" standalone="no"?>
<!-- Created with Inkscape (http://www.inkscape.org/) -->

<svg
   xmlns:dc="http://purl.org/dc/elements/1.1/"
   xmlns:cc="http://creativecommons.org/ns#"
   xmlns:rdf="http://www.w3.org/1999/02/22-rdf-syntax-ns#"
   xmlns:svg="http://www.w3.org/2000/svg"
   xmlns="http://www.w3.org/2000/svg"
   xmlns:sodipodi="http://sodipodi.sourceforge.net/DTD/sodipodi-0.dtd"
   xmlns:inkscape="http://www.inkscape.org/namespaces/inkscape"
   width="96"
   height="96"
   id="svg2985"
   version="1.1"
   inkscape:version="0.48.4 r9939"
   sodipodi:docname="speed-2.svg">
  <defs
     id="defs2987" />
  <sodipodi:namedview
     id="base"
     pagecolor="#ffffff"
     bordercolor="#666666"
     borderopacity="1.0"
     inkscape:pageopacity="0.0"
     inkscape:pageshadow="2"
     inkscape:zoom="5"
     inkscape:cx="42.1"
     inkscape:cy="47.807692"
     inkscape:current-layer="layer1"
     showgrid="true"
     inkscape:document-units="px"
     inkscape:grid-bbox="true"
     inkscape:window-width="1366"
     inkscape:window-height="719"
     inkscape:window-x="0"
     inkscape:window-y="0"
     inkscape:window-maximized="1" />
  <metadata
     id="metadata2990">
    <rdf:RDF>
      <cc:Work
         rdf:about="">
        <dc:format>image/svg+xml</dc:format>
        <dc:type
           rdf:resource="http://purl.org/dc/dcmitype/StillImage" />
        <dc:title></dc:title>
      </cc:Work>
    </rdf:RDF>
  </metadata>
  <g
     id="layer1"
     inkscape:label="Layer 1"
     inkscape:groupmode="layer"
     transform="translate(0,32)">
    <path
       sodipodi:type="arc"
       style="fill:#7d9dff;fill-opacity:1;stroke:#7d9dff;stroke-width:1.01074970000000008;stroke-miterlimit:4;stroke-opacity:1;stroke-dasharray:none"
       id="path2993"
       sodipodi:cx="48.010609"
       sodipodi:cy="47.989391"
       sodipodi:rx="48.010609"
       sodipodi:ry="48.010609"
       d="M 96.021217,47.989391 C 96.021217,74.504918 74.526136,96 48.010609,96 21.495082,96 0,74.504918 0,47.989391 0,21.473864 21.495082,-0.02121735 48.010609,-0.02121735 c 26.515527,0 48.010608,21.49508135 48.010608,48.01060835 z"
       transform="matrix(0.98936467,0,0,0.98936467,0.50000002,-31.479008)" />
    <path
       sodipodi:type="arc"
       style="fill:#001864;fill-opacity:1;stroke:#001864;stroke-opacity:1;stroke-width:0.89227588999999985;stroke-miterlimit:4;stroke-dasharray:none"
       id="path2995"
       sodipodi:cx="41.099998"
       sodipodi:cy="40.299999"
       sodipodi:rx="34.900002"
       sodipodi:ry="36.5"
       d="m 76,40.299999 c 0,20.158394 -15.625263,36.5 -34.900002,36.5 -19.274738,0 -34.9000011,-16.341606 -34.9000011,-36.5 C 6.1999969,20.141606 21.82526,3.7999992 41.099998,3.7999992 60.374737,3.7999992 76,20.141606 76,40.299999 z"
       transform="matrix(1.1461318,0,0,1.0958904,0.89398454,-28.164382)" />
    <path
       style="fill:#ff0000;fill-opacity:1;stroke:#ff0000;stroke-width:1;stroke-miterlimit:4;stroke-opacity:1;stroke-dasharray:none;stroke-dashoffset:0;stroke-linecap:butt;stroke-linejoin:round"
       d="M 65.070331,-0.37598286 42.57268,29.926661 c -0.716721,0.662998 -1.331903,1.469664 -1.781124,2.402687 -1.916683,3.980894 -0.243308,8.761823 3.737585,10.678505 3.980894,1.91668 8.761823,0.243307 10.678505,-3.737586 0.03221,-0.06689 0.0647,-0.129777 0.0949,-0.197095 l 0.02711,-0.05631 c 0.379075,-0.863421 0.596898,-1.771806 0.659041,-2.66547 0.0038,-0.05518 0.0088,-0.112751 0.01152,-0.167895 L 65.07038,-0.37598135 z"
       id="path3911"
       inkscape:connector-curvature="0"
       inkscape:transform-center-y="-14.087168"
       inkscape:transform-center-x="-4.534069" />
    <path
       transform="matrix(1.1538462,0,0,1.1538462,23.307692,-52.692311)"
       sodipodi:type="arc"
       style="fill:#ffff00;fill-opacity:1;stroke:#ffff00;stroke-width:0.86666662999999999;stroke-miterlimit:4;stroke-opacity:1;stroke-dasharray:none;stroke-dashoffset:0"
       id="path3913-7"
       sodipodi:cx="21.4"
       sodipodi:cy="34.400002"
       sodipodi:rx="2.5999999"
       sodipodi:ry="2.5999999"
       d="m 24,34.400002 c 0,1.43594 -1.16406,2.599999 -2.6,2.599999 -1.435941,0 -2.6,-1.164059 -2.6,-2.599999 0,-1.435941 1.164059,-2.6 2.6,-2.6 1.43594,0 2.6,1.164059 2.6,2.6 z"
       inkscape:transform-center-y="-29" />
    <path
       transform="matrix(0.99941835,0.57664895,-0.57664895,0.99941835,60.942282,-55.838994)"
       sodipodi:type="arc"
       style="fill:#ffff00;fill-opacity:1;stroke:#ffff00;stroke-width:0.86666662999999999;stroke-miterlimit:4;stroke-opacity:1;stroke-dasharray:none;stroke-dashoffset:0"
       id="path3913-7-3"
       sodipodi:cx="21.4"
       sodipodi:cy="34.400002"
       sodipodi:rx="2.5999999"
       sodipodi:ry="2.5999999"
       d="m 24,34.400002 c 0,1.43594 -1.16406,2.599999 -2.6,2.599999 -1.435941,0 -2.6,-1.164059 -2.6,-2.599999 0,-1.435941 1.164059,-2.6 2.6,-2.6 1.43594,0 2.6,1.164059 2.6,2.6 z"
       inkscape:transform-center-y="-25.118714"
       inkscape:transform-center-x="-14.493109" />
    <path
       transform="matrix(0.5774931,0.99893081,-0.99893081,0.5774931,95.11133,-39.757209)"
       sodipodi:type="arc"
       style="fill:#ffff00;fill-opacity:1;stroke:#ffff00;stroke-width:0.86666664000000004;stroke-miterlimit:4;stroke-opacity:1;stroke-dasharray:none;stroke-dashoffset:0"
       id="path3913-7-37"
       sodipodi:cx="21.4"
       sodipodi:cy="34.400002"
       sodipodi:rx="2.5999999"
       sodipodi:ry="2.5999999"
       d="m 24,34.400002 c 0,1.43594 -1.16406,2.599999 -2.6,2.599999 -1.435941,0 -2.6,-1.164059 -2.6,-2.599999 0,-1.435941 1.164059,-2.6 2.6,-2.6 1.43594,0 2.6,1.164059 2.6,2.6 z"
       inkscape:transform-center-y="-14.514327"
       inkscape:transform-center-x="-25.10646" />
    <path
       transform="matrix(0.99970902,-0.57614488,0.57614488,0.99970902,-7.693598,-31.186511)"
       sodipodi:type="arc"
       style="fill:#ffff00;fill-opacity:1;stroke:#ffff00;stroke-width:0.86666662999999999;stroke-miterlimit:4;stroke-opacity:1;stroke-dasharray:none;stroke-dashoffset:0"
       id="path3913-7-4"
       sodipodi:cx="21.4"
       sodipodi:cy="34.400002"
       sodipodi:rx="2.5999999"
       sodipodi:ry="2.5999999"
       d="m 24,34.400002 c 0,1.43594 -1.16406,2.599999 -2.6,2.599999 -1.435941,0 -2.6,-1.164059 -2.6,-2.599999 0,-1.435941 1.164059,-2.6 2.6,-2.6 1.43594,0 2.6,1.164059 2.6,2.6 z"
       inkscape:transform-center-y="-25.126019"
       inkscape:transform-center-x="14.480441" />
    <path
       transform="matrix(0.5782945,-0.99846709,0.99846709,0.5782945,-23.817576,2.939396)"
       sodipodi:type="arc"
       style="fill:#ffff00;fill-opacity:1;stroke:#ffff00;stroke-width:0.86666662999999999;stroke-miterlimit:4;stroke-opacity:1;stroke-dasharray:none;stroke-dashoffset:0"
       id="path3913-7-7"
       sodipodi:cx="21.4"
       sodipodi:cy="34.400002"
       sodipodi:rx="2.5999999"
       sodipodi:ry="2.5999999"
       d="m 24,34.400002 c 0,1.43594 -1.16406,2.599999 -2.6,2.599999 -1.435941,0 -2.6,-1.164059 -2.6,-2.599999 0,-1.435941 1.164059,-2.6 2.6,-2.6 1.43594,0 2.6,1.164059 2.6,2.6 z"
       inkscape:transform-center-y="-14.534468"
       inkscape:transform-center-x="25.094805" />
  </g>
</svg>
