<?xml version="1.0" encoding="UTF-8" standalone="no"?>
<!-- Created with Inkscape (http://www.inkscape.org/) -->

<svg
   xmlns:osb="http://www.openswatchbook.org/uri/2009/osb"
   xmlns:dc="http://purl.org/dc/elements/1.1/"
   xmlns:cc="http://creativecommons.org/ns#"
   xmlns:rdf="http://www.w3.org/1999/02/22-rdf-syntax-ns#"
   xmlns:svg="http://www.w3.org/2000/svg"
   xmlns="http://www.w3.org/2000/svg"
   xmlns:sodipodi="http://sodipodi.sourceforge.net/DTD/sodipodi-0.dtd"
   xmlns:inkscape="http://www.inkscape.org/namespaces/inkscape"
   width="96"
   height="96"
   id="svg2985"
   version="1.1"
   inkscape:version="0.48.4 r9939"
   sodipodi:docname="lego-2.svg">
  <defs
     id="defs2987">
    <linearGradient
       id="linearGradient5243"
       osb:paint="solid">
      <stop
         style="stop-color:#b7dc1e;stop-opacity:1;"
         offset="0"
         id="stop5245" />
    </linearGradient>
  </defs>
  <sodipodi:namedview
     id="base"
     pagecolor="#ffffff"
     bordercolor="#666666"
     borderopacity="1.0"
     inkscape:pageopacity="0.0"
     inkscape:pageshadow="2"
     inkscape:zoom="5"
     inkscape:cx="54.942882"
     inkscape:cy="51.351517"
     inkscape:current-layer="layer1"
     showgrid="true"
     inkscape:document-units="px"
     inkscape:grid-bbox="true"
     inkscape:window-width="1366"
     inkscape:window-height="719"
     inkscape:window-x="0"
     inkscape:window-y="0"
     inkscape:window-maximized="1" />
  <metadata
     id="metadata2990">
    <rdf:RDF>
      <cc:Work
         rdf:about="">
        <dc:format>image/svg+xml</dc:format>
        <dc:type
           rdf:resource="http://purl.org/dc/dcmitype/StillImage" />
        <dc:title></dc:title>
      </cc:Work>
    </rdf:RDF>
  </metadata>
  <g
     id="layer1"
     inkscape:label="Layer 1"
     inkscape:groupmode="layer"
     transform="translate(0,32)">
    <path
       sodipodi:type="arc"
       style="fill:#b4b400;fill-opacity:1;stroke:#b4b400;stroke-width:1.01074966000000011;stroke-miterlimit:4;stroke-opacity:1;stroke-dasharray:none"
       id="path2993"
       sodipodi:cx="48.010609"
       sodipodi:cy="47.989391"
       sodipodi:rx="48.010609"
       sodipodi:ry="48.010609"
       d="M 96.021217,47.989391 C 96.021217,74.504918 74.526136,96 48.010609,96 21.495082,96 0,74.504918 0,47.989391 0,21.473864 21.495082,-0.02121735 48.010609,-0.02121735 c 26.515527,0 48.010608,21.49508135 48.010608,48.01060835 z"
       transform="matrix(0.98936467,0,0,0.98936467,0.5,-31.479008)" />
    <path
       sodipodi:type="arc"
       style="fill:#ffff00;fill-opacity:1;stroke:#ffff00;stroke-opacity:1;stroke-width:0.89227588999999985;stroke-miterlimit:4;stroke-dasharray:none"
       id="path2995"
       sodipodi:cx="41.099998"
       sodipodi:cy="40.299999"
       sodipodi:rx="34.900002"
       sodipodi:ry="36.5"
       d="m 76,40.299999 c 0,20.158394 -15.625263,36.5 -34.900002,36.5 -19.274738,0 -34.9000011,-16.341606 -34.9000011,-36.5 C 6.1999969,20.141606 21.82526,3.7999992 41.099998,3.7999992 60.374737,3.7999992 76,20.141606 76,40.299999 z"
       transform="matrix(1.1461318,0,0,1.0958904,0.89398454,-28.164382)" />
    <g
       id="g4123"
       transform="translate(-0.2823073,0.8)">
      <g
         id="g4118">
        <rect
           style="fill:#b40000;fill-opacity:1;stroke:#b40000;stroke-width:1.05390978;stroke-opacity:1"
           id="rect3946-5-9"
           width="8.9460907"
           height="7.9460897"
           x="20.326954"
           y="17.526955"
           rx="1"
           ry="1" />
        <rect
           style="fill:#b40000;fill-opacity:1;stroke:#b40000;stroke-width:1.05390978;stroke-opacity:1"
           id="rect3946-0-7-5"
           width="8.9460907"
           height="7.9460897"
           x="36.326962"
           y="17.326954"
           rx="1.2"
           ry="1.2" />
        <path
           style="fill:#ff0000;fill-opacity:1;stroke:#ff0000;stroke-width:1;stroke-miterlimit:4;stroke-opacity:1;stroke-dasharray:none"
           d="M 18.70625,21.5 C 17.93065,21.5 17.3,22.13065 17.3,22.90625 l 0,4.59375 0,7.59375 0,1.40625 1.40625,0 28.1875,0 1.40625,0 0,-1.40625 0,-7.59375 0,-4.59375 C 48.3,22.13065 47.66935,21.5 46.89375,21.5 l -28.1875,0 z"
           id="rect3944"
           inkscape:connector-curvature="0" />
      </g>
      <g
         id="g4111">
        <rect
           style="fill:#0000b4;fill-opacity:1;stroke:#0000b4;stroke-width:1.05390978;stroke-opacity:1"
           id="rect3946-5"
           width="8.9460907"
           height="7.9460897"
           x="21.860785"
           y="-31.416918"
           rx="1"
           ry="1"
           transform="matrix(0.82103705,0.5708749,-0.5708749,0.82103705,0,0)" />
        <rect
           style="fill:#0000b4;fill-opacity:1;stroke:#0000b4;stroke-width:1.05390978;stroke-opacity:1"
           id="rect3946-0-7"
           width="8.9460907"
           height="7.9460897"
           x="37.860786"
           y="-31.616919"
           rx="1.2"
           ry="1.2"
           transform="matrix(0.82103705,0.5708749,-0.5708749,0.82103705,0,0)" />
        <rect
           style="fill:#0000b4;fill-opacity:1;stroke:#0000b4;stroke-width:1.05390978;stroke-opacity:1"
           id="rect3946-5-2"
           width="8.9460907"
           height="7.9460897"
           x="53.860786"
           y="-31.416918"
           rx="1"
           ry="1"
           transform="matrix(0.82103705,0.5708749,-0.5708749,0.82103705,0,0)" />
        <rect
           style="fill:#0000b4;fill-opacity:1;stroke:#0000b4;stroke-width:1.05390978;stroke-opacity:1"
           id="rect3946-0-7-3"
           width="8.9460907"
           height="7.9460897"
           x="69.860786"
           y="-31.616919"
           rx="1.2000008"
           ry="1.2000008"
           transform="matrix(0.82103705,0.5708749,-0.5708749,0.82103705,0,0)" />
        <path
           inkscape:connector-curvature="0"
           style="fill:#0000ff;fill-opacity:1;stroke:#0000ff;stroke-width:1;stroke-opacity:1"
           d="m 31.951329,-11.2098 c -0.454854,-0.316265 -1.075647,-0.204693 -1.391912,0.250162 l -1.248789,1.7960186 -6.172585,8.87746308 -0.570874,0.82103705 0.821037,0.57087487 50.08326,34.8233694 0.821037,0.570874 0.570875,-0.821037 6.172584,-8.877463 1.248789,-1.796018 c 0.316265,-0.454855 0.204693,-1.075648 -0.250162,-1.391912 L 31.951329,-11.2098 z"
           id="rect4023" />
      </g>
    </g>
  </g>
</svg>
