<?xml version="1.0" encoding="UTF-8" standalone="no"?>
<!-- Created with Inkscape (http://www.inkscape.org/) -->

<svg
   xmlns:dc="http://purl.org/dc/elements/1.1/"
   xmlns:cc="http://creativecommons.org/ns#"
   xmlns:rdf="http://www.w3.org/1999/02/22-rdf-syntax-ns#"
   xmlns:svg="http://www.w3.org/2000/svg"
   xmlns="http://www.w3.org/2000/svg"
   xmlns:sodipodi="http://sodipodi.sourceforge.net/DTD/sodipodi-0.dtd"
   xmlns:inkscape="http://www.inkscape.org/namespaces/inkscape"
   width="96"
   height="96"
   id="svg2985"
   version="1.1"
   inkscape:version="0.48.4 r9939"
   sodipodi:docname="power-2.svg">
  <defs
     id="defs2987" />
  <sodipodi:namedview
     id="base"
     pagecolor="#ffffff"
     bordercolor="#666666"
     borderopacity="1.0"
     inkscape:pageopacity="0.0"
     inkscape:pageshadow="2"
     inkscape:zoom="5"
     inkscape:cx="42.1"
     inkscape:cy="48.592121"
     inkscape:current-layer="layer1"
     showgrid="true"
     inkscape:document-units="px"
     inkscape:grid-bbox="true"
     inkscape:window-width="1366"
     inkscape:window-height="719"
     inkscape:window-x="0"
     inkscape:window-y="0"
     inkscape:window-maximized="1" />
  <metadata
     id="metadata2990">
    <rdf:RDF>
      <cc:Work
         rdf:about="">
        <dc:format>image/svg+xml</dc:format>
        <dc:type
           rdf:resource="http://purl.org/dc/dcmitype/StillImage" />
        <dc:title />
      </cc:Work>
    </rdf:RDF>
  </metadata>
  <g
     id="layer1"
     inkscape:label="Layer 1"
     inkscape:groupmode="layer"
     transform="translate(0,32)">
    <path
       sodipodi:type="arc"
       style="fill:#76c800;fill-opacity:1;stroke:#76c800;stroke-width:1.01074966000000011;stroke-miterlimit:4;stroke-opacity:1;stroke-dasharray:none"
       id="path2993"
       sodipodi:cx="48.010609"
       sodipodi:cy="47.989391"
       sodipodi:rx="48.010609"
       sodipodi:ry="48.010609"
       d="M 96.021217,47.989391 C 96.021217,74.504918 74.526136,96 48.010609,96 21.495082,96 0,74.504918 0,47.989391 0,21.473864 21.495082,-0.02121735 48.010609,-0.02121735 c 26.515527,0 48.010608,21.49508135 48.010608,48.01060835 z"
       transform="matrix(0.98936467,0,0,0.98936467,0.5,-31.479008)" />
    <path
       sodipodi:type="arc"
       style="fill:#ffff00;fill-opacity:1;stroke:#ffff00;stroke-opacity:1;stroke-width:0.89227588999999985;stroke-miterlimit:4;stroke-dasharray:none"
       id="path2995"
       sodipodi:cx="41.099998"
       sodipodi:cy="40.299999"
       sodipodi:rx="34.900002"
       sodipodi:ry="36.5"
       d="m 76,40.299999 c 0,20.158394 -15.625263,36.5 -34.900002,36.5 -19.274738,0 -34.9000011,-16.341606 -34.9000011,-36.5 C 6.1999969,20.141606 21.82526,3.7999992 41.099998,3.7999992 60.374737,3.7999992 76,20.141606 76,40.299999 z"
       transform="matrix(1.1461318,0,0,1.0958904,0.89398454,-28.164382)" />
    <path
       style="fill:#f07100;stroke:#f07100;stroke-width:1;stroke-linecap:butt;stroke-linejoin:round;stroke-opacity:1;fill-opacity:1;stroke-miterlimit:4;stroke-dasharray:none"
       d="m 47.596071,-18.330326 -10.831174,33.336655 8.417508,0.27269 -10.627115,32.584465 23.343147,-35.668212 -7.916139,-0.276181 16.262411,-24.859198 -12.21016,2.341218 -6.438478,-7.731437 z"
       id="path3791"
       inkscape:connector-curvature="0" />
  </g>
</svg>
